<svg xmlns="http://www.w3.org/2000/svg" width="1600" height="1200" viewBox="0 0 1600 1200">
  <rect width="1600" height="1200" fill="#f3f4f6"/>
  <g stroke="#dfe3e8" stroke-width="1" opacity=".55">
    <path d="M0 80h1600M0 160h1600M0 240h1600M0 320h1600M0 400h1600M0 480h1600M0 560h1600M0 640h1600M0 720h1600M0 800h1600M0 880h1600M0 960h1600M0 1040h1600M0 1120h1600"/>
    <path d="M80 0v1200M160 0v1200M240 0v1200M320 0v1200M400 0v1200M480 0v1200M560 0v1200M640 0v1200M720 0v1200M800 0v1200M880 0v1200M960 0v1200M1040 0v1200M1120 0v1200M1200 0v1200M1280 0v1200M1360 0v1200M1440 0v1200M1520 0v1200"/>
  </g>
  <rect width="1600" height="78" fill="#fff" stroke="#dfe3e8"/>
  <circle cx="76" cy="39" r="7" fill="#111827"/>
  <text x="96" y="48" font-family="Arial, sans-serif" font-weight="700" font-size="26" fill="#111827">Signal</text>
  <g font-family="Arial, sans-serif" font-size="17" fill="#374151"><text x="1280" y="47">Search</text><text x="1380" y="47">Theme</text></g>
  <g transform="translate(95 118)">
    <rect width="270" height="300" fill="#fff" stroke="#dfe3e8"/>
    <text x="18" y="32" font-family="monospace" font-weight="700" font-size="12" fill="#667085">CATEGORIES</text>
    <path d="M18 48h234" stroke="#dfe3e8"/>
    <g fill="#111827"><rect x="22" y="72" width="120" height="12"/><rect x="34" y="112" width="152" height="10"/><rect x="34" y="148" width="112" height="10"/><rect x="22" y="192" width="138" height="12"/><rect x="34" y="232" width="168" height="10"/></g>
    <path d="M0 10V0h10M260 300h10v-10" fill="none" stroke="#111827"/>
  </g>
  <g transform="translate(95 445)">
    <rect width="270" height="130" fill="#fff" stroke="#dfe3e8"/>
    <text x="18" y="30" font-family="monospace" font-weight="700" font-size="12" fill="#667085">VISITORS</text>
    <path d="M18 43h234" stroke="#dfe3e8"/>
    <g font-family="monospace" text-anchor="middle"><text x="48" y="71" font-size="10" fill="#667085">TODAY</text><text x="135" y="71" font-size="10" fill="#667085">YESTERDAY</text><text x="222" y="71" font-size="10" fill="#667085">TOTAL</text><text x="48" y="100" font-size="17" font-weight="700" fill="#111827">128</text><text x="135" y="100" font-size="17" font-weight="700" fill="#111827">94</text><text x="222" y="100" font-size="17" font-weight="700" fill="#111827">12,842</text></g>
  </g>
  <g transform="translate(405 118)">
    <rect width="810" height="145" fill="#fff" stroke="#dfe3e8"/>
    <text x="42" y="42" font-family="monospace" font-weight="700" font-size="13" letter-spacing="2" fill="#667085">ARCHIVE</text>
    <text x="42" y="92" font-family="Arial, sans-serif" font-weight="800" font-size="34" fill="#111827">All posts</text>
    <text x="748" y="48" text-anchor="end" font-family="monospace" font-size="12" fill="#667085">10 POSTS</text>
    <path d="M0 12V0h12M798 145h12v-12" fill="none" stroke="#111827"/>
  </g>
  <g transform="translate(405 293)">
    <g><rect width="810" height="185" fill="#fff" stroke="#dfe3e8"/><rect x="35" y="30" width="96" height="24" fill="#f3f4f6" stroke="#dfe3e8"/><rect x="35" y="78" width="590" height="18" fill="#111827"/><rect x="35" y="116" width="690" height="10" fill="#9ca3af"/><rect x="35" y="142" width="470" height="10" fill="#9ca3af"/><path d="M0 12V0h12M798 185h12v-12" fill="none" stroke="#111827"/></g>
    <g transform="translate(0 210)"><rect width="810" height="185" fill="#fff" stroke="#dfe3e8"/><rect x="35" y="30" width="78" height="24" fill="#f3f4f6" stroke="#dfe3e8"/><rect x="35" y="78" width="530" height="18" fill="#111827"/><rect x="35" y="116" width="705" height="10" fill="#9ca3af"/><rect x="35" y="142" width="520" height="10" fill="#9ca3af"/><path d="M0 12V0h12M798 185h12v-12" fill="none" stroke="#111827"/></g>
    <g transform="translate(0 420)"><rect width="810" height="185" fill="#fff" stroke="#dfe3e8"/><rect x="35" y="30" width="108" height="24" fill="#f3f4f6" stroke="#dfe3e8"/><rect x="35" y="78" width="610" height="18" fill="#111827"/><rect x="35" y="116" width="680" height="10" fill="#9ca3af"/><rect x="35" y="142" width="430" height="10" fill="#9ca3af"/><path d="M0 12V0h12M798 185h12v-12" fill="none" stroke="#111827"/></g>
  </g>
  <g transform="translate(1390 180) rotate(8)" fill="none" stroke="#111827" stroke-width="3" opacity=".15"><rect x="20" y="20" width="55" height="55"/><path d="M32 20V4M48 20V4M64 20V4M32 75v16M48 75v16M64 75v16M20 32H4M20 48H4M20 64H4M75 32h16M75 48h16M75 64h16"/></g>
  <g transform="translate(1390 880) rotate(-12)" fill="none" stroke="#111827" stroke-width="3" opacity=".15"><path d="M0 30h25l10-18 18 36 18-36 18 36 10-18h25"/></g>
  <text x="1505" y="1150" text-anchor="end" font-family="monospace" font-size="18" fill="#667085">SIGNAL / 0.2.2</text>
</svg>
